<?xml version="1.0" encoding="utf-8"?>
<!-- Generator: Adobe Illustrator 16.0.0, SVG Export Plug-In . SVG Version: 6.00 Build 0)  -->
<!DOCTYPE svg PUBLIC "-//W3C//DTD SVG 1.1//EN" "http://www.w3.org/Graphics/SVG/1.1/DTD/svg11.dtd">
<svg version="1.1" id="Layer_1" xmlns="http://www.w3.org/2000/svg" xmlns:xlink="http://www.w3.org/1999/xlink" x="0px" y="0px"
	 width="204px" height="144px" viewBox="52.5 80.5 204 144" enable-background="new 52.5 80.5 204 144" xml:space="preserve">
<g>
	<path d="M92.583,100.954c5.598,0.79,10.617,4.217,12.457,9.056c1.303,3.428-0.324,5.357-3.062,7.456
		c-4.568,3.501-8.913,7.39-12.85,11.586c-3.388,3.611-3.188,7.914,0.015,11.783c2.115,2.557,4.169,5.282,6.735,7.322
		c5.236,4.162,6.11,9.472,5.422,15.629c-1.435,12.841-7.429,23.72-14.708,33.927c-4.417,6.195-9.335,12.11-14.629,17.568
		c-2.263,2.334-6.035,4.325-9.161,4.385c-3.076,0.059-6.184-7.445-5.896-11.478c0.553-7.748,6.262-12.666,10.203-18.495
		c4.092-6.055,8.773-11.707,13.118-17.596c3.021-4.094,3.132-8.209-0.046-12.392c-3.222-4.237-6.382-8.532-9.373-12.935
		c-4.812-7.085-5.926-14.417-0.6-21.782c4.846-6.702,9.604-13.492,14.885-19.841C86.8,103.095,90.042,102.316,92.583,100.954z"/>
	<path d="M177.729,171.795c1.07-23.34,1.678-42.792,3.037-62.192c0.382-5.438,2.207-11.118,4.729-15.983
		c4.174-8.052,12.98-10.307,21.424-6.452c7.66,3.497,13.556,9.215,17.929,16.17c5.293,8.417,1.12,16.29-2.65,24.014
		c-4.384,8.976-12.877,13.3-20.809,18.029c-5.402,3.221-7.636,7.562-7.864,13.457c-0.509,13.123-0.743,26.268-1.745,39.353
		c-0.286,3.752-2.319,7.682-4.545,10.827c-0.938,1.324-6.256-4.946-6.817-9.875C179.231,188.779,178.362,178.383,177.729,171.795z
		 M191.954,120.796c0,1.243-0.008,3.896,0.006,6.549c0.002,0.662,0.031,1.329,0.119,1.985c0.607,4.625,3.709,6.511,7.168,3.64
		c5.435-4.509,10.553-9.5,15.191-14.823c2.886-3.312,3.227-7.81,0.229-11.511c-2.274-2.811-4.953-5.429-7.869-7.559
		c-6.424-4.688-12.947-1.514-13.644,6.422C192.749,110.123,192.425,114.755,191.954,120.796z"/>
	<path d="M117.24,113.462c0.549-3.825,0.607-8.115,1.925-11.974c0.816-2.389,3.549-4.122,5.421-6.15
		c1.709,2.249,4.458,4.296,4.94,6.782c1.676,8.646,2.558,17.445,3.758,26.186c0.742,5.404,0.923,10.978,2.434,16.16
		c1.504,5.161,5.875,5.973,9.523,1.929c2.218-2.46,4.388-5.841,4.699-8.994c1.664-16.868,6.44-32.944,11.516-48.97
		c0.357-1.128,1.66-2.899,2.273-2.802c1.205,0.191,2.904,1.297,3.212,2.365c0.952,3.315,2.062,6.839,1.832,10.195
		c-0.851,12.431-2.306,24.819-3.358,37.239c-1.021,12.066-9.312,21.207-12.838,32.277c-0.686,2.148-2.979,4.029-4.938,5.483
		c-9.222,6.845-19.27,3.866-22.14-7.308c-3.049-11.871-4.931-24.056-6.968-36.162C117.651,124.49,117.66,119.109,117.24,113.462z"/>
	<path d="M252.112,177.434c0.066,7.561-5.443,12.854-13.377,12.85c-6.667-0.003-10.947-3.945-11.051-10.18
		c-0.16-9.752,3.078-14.975,9.24-14.902C246.095,165.307,252.048,170.1,252.112,177.434z"/>
	<path fill="#FFFFFF" d="M191.954,120.796c0.471-6.041,0.795-10.673,1.2-15.297c0.695-7.936,7.22-11.109,13.644-6.422
		c2.916,2.13,5.595,4.748,7.869,7.559c2.998,3.701,2.657,8.199-0.229,11.511c-4.639,5.323-9.758,10.314-15.191,14.823
		c-3.459,2.871-6.561,0.985-7.168-3.64c-0.088-0.656-0.117-1.323-0.119-1.985C191.946,124.692,191.954,122.039,191.954,120.796z"/>
</g>
</svg>
