<?xml version="1.0" encoding="utf-8"?>
<!-- Generator: Adobe Illustrator 16.0.0, SVG Export Plug-In . SVG Version: 6.00 Build 0)  -->
<!DOCTYPE svg PUBLIC "-//W3C//DTD SVG 1.1//EN" "http://www.w3.org/Graphics/SVG/1.1/DTD/svg11.dtd">
<svg version="1.1" id="Layer_1" xmlns="http://www.w3.org/2000/svg" xmlns:xlink="http://www.w3.org/1999/xlink" x="0px" y="0px"
	 width="204px" height="144px" viewBox="0 0 204 144" enable-background="new 0 0 204 144" xml:space="preserve">
<g>
	<path fill="#FFFFFF" d="M40.467,20.954c5.598,0.79,10.617,4.217,12.457,9.056c1.303,3.428-0.324,5.357-3.062,7.456
		c-4.568,3.501-8.913,7.39-12.85,11.586c-3.388,3.611-3.188,7.914,0.015,11.783c2.115,2.558,4.169,5.282,6.735,7.322
		c5.236,4.161,6.11,9.472,5.422,15.629c-1.435,12.841-7.429,23.72-14.708,33.927c-4.417,6.195-9.335,12.11-14.629,17.568
		c-2.263,2.334-6.035,4.324-9.161,4.385c-3.076,0.059-6.184-7.445-5.896-11.479c0.553-7.748,6.262-12.666,10.203-18.494
		c4.092-6.055,8.773-11.707,13.118-17.596c3.021-4.095,3.132-8.209-0.046-12.393c-3.222-4.237-6.382-8.532-9.373-12.936
		c-4.812-7.084-5.926-14.416-0.6-21.781c4.846-6.702,9.604-13.492,14.885-19.842C34.684,23.095,37.926,22.316,40.467,20.954z"/>
	<path fill="#FFFFFF" d="M125.612,91.795c1.07-23.34,1.679-42.792,3.037-62.191c0.383-5.438,2.207-11.119,4.729-15.983
		c4.174-8.052,12.979-10.308,21.424-6.452c7.66,3.497,13.556,9.215,17.929,16.17c5.293,8.417,1.12,16.29-2.649,24.014
		c-4.384,8.977-12.878,13.301-20.81,18.029c-5.402,3.221-7.636,7.562-7.863,13.457c-0.51,13.123-0.743,26.268-1.746,39.354
		c-0.285,3.752-2.318,7.682-4.545,10.826c-0.938,1.324-6.256-4.945-6.816-9.875C127.114,108.779,126.245,98.383,125.612,91.795z
		 M139.838,40.796c0,1.243-0.009,3.896,0.006,6.549c0.002,0.662,0.031,1.329,0.119,1.985c0.606,4.625,3.709,6.511,7.168,3.64
		c5.435-4.509,10.553-9.5,15.19-14.823c2.887-3.312,3.228-7.81,0.229-11.511c-2.274-2.811-4.953-5.429-7.869-7.559
		c-6.424-4.688-12.946-1.515-13.644,6.422C140.633,30.123,140.309,34.755,139.838,40.796z"/>
	<path fill="#FFFFFF" d="M65.124,33.462c0.549-3.825,0.607-8.114,1.925-11.974c0.815-2.389,3.549-4.122,5.421-6.15
		c1.709,2.249,4.458,4.296,4.939,6.782c1.677,8.646,2.559,17.444,3.759,26.187c0.741,5.403,0.923,10.978,2.434,16.159
		c1.505,5.161,5.875,5.974,9.523,1.929c2.218-2.459,4.388-5.84,4.698-8.994c1.664-16.867,6.44-32.943,11.517-48.969
		c0.356-1.129,1.66-2.899,2.272-2.803c1.205,0.191,2.904,1.297,3.213,2.365c0.951,3.314,2.062,6.839,1.832,10.195
		c-0.852,12.431-2.307,24.818-3.358,37.238c-1.021,12.066-9.312,21.207-12.838,32.277c-0.687,2.148-2.979,4.029-4.938,5.482
		c-9.222,6.846-19.27,3.867-22.14-7.308c-3.049-11.871-4.931-24.056-6.968-36.162C65.534,44.49,65.544,39.109,65.124,33.462z"/>
	<path fill="#FFFFFF" d="M199.995,97.434c0.066,7.562-5.442,12.854-13.377,12.851c-6.666-0.003-10.946-3.945-11.051-10.181
		c-0.16-9.752,3.078-14.975,9.24-14.901C193.979,85.307,199.932,90.1,199.995,97.434z"/>
</g>
</svg>
