<?xml version="1.0" encoding="utf-8"?>
<!-- Generator: Adobe Illustrator 16.0.0, SVG Export Plug-In . SVG Version: 6.00 Build 0)  -->
<!DOCTYPE svg PUBLIC "-//W3C//DTD SVG 1.1//EN" "http://www.w3.org/Graphics/SVG/1.1/DTD/svg11.dtd">
<svg version="1.1" id="x_xA0_Image_1_" xmlns="http://www.w3.org/2000/svg" xmlns:xlink="http://www.w3.org/1999/xlink" x="0px"
	 y="0px" width="402px" height="402px" viewBox="0 0 402 402" enable-background="new 0 0 402 402" xml:space="preserve">
<g>
	<path fill="#FFFFFF" d="M281.604,105.621c1.256-1.798,1.756-2.656,2.393-3.399c5.593-6.55,5.547-7.893,0.178-14.328
		c-1.087-1.303-1.273-3.317-2.213-4.79c-1.576-2.476-2.977-5.761-5.307-6.824c-1.652-0.755-5.246,1.009-7.057,2.656
		c-5.328,4.848-11.152,8.725-13.5,16.898c-1.933,6.723-8.338,12.155-12.736,18.177c-6.146,8.413-12.254,16.857-18.428,25.252
		c-1.174,1.596-2.623,2.985-3.865,4.534c-3.9,4.871-8.262,9.466-11.521,14.738c-4.204,6.803-9.102,7.353-13.829,0.774
		c-2.815-3.918-5.604-7.862-8.589-11.648c-10.079-12.783-20.086-25.628-30.471-38.159c-2.872-3.466-6.775-6.204-10.574-8.717
		c-1.781-1.178-4.815-0.436-6.631-1.588c-5.521-3.502-11.448-3.146-16.891-1.253c-8.981,3.123-15.257,8.676-11.497,18.404
		c3.325,8.604,6.512,17.265,9.97,25.815c0.783,1.936,2.233,3.715,3.716,5.234c9.54,9.778,19.471,19.192,28.68,29.269
		c7.046,7.71,13.282,16.169,19.75,24.395c2.735,3.479,2.719,6.634-0.934,10.009c-4.23,3.908-8.371,8.154-11.542,12.925
		c-7.979,11.998-15.394,24.372-23.023,36.603c-0.261,0.418-0.321,0.971-0.605,1.364c-2,2.778-3.575,6.106-6.157,8.17
		c-5.059,4.042-8.777,8.063-9.996,15.104c-1.883,10.881-1.539,12.824,9.021,15.709c-2.58,5.136-0.817,9.533,2.491,13.693
		c0.731,0.92,0.799,2.381,1.126,3.604c0.404,1.512,0.761,3.036,1.138,4.556c1.522-0.485,3.174-0.749,4.531-1.524
		c1.257-0.721,2.34-1.879,3.257-3.035c8.869-11.2,17.728-22.407,26.494-33.688c3.052-3.928,6.571-7.731,8.565-12.183
		c2.685-5.988,5.476-11.522,10.414-16.104c3.725-3.455,6.551-7.893,9.695-11.955c2.236-2.892,4.161-6.039,6.541-8.801
		c3.011-3.494,5.646-2.965,8.469,0.562c6.896,8.61,13.929,17.12,21.142,25.468c5.412,6.264,11.158,12.238,16.817,18.286
		c4.092,4.371,8.246,8.687,12.449,12.952c3.259,3.31,7.506,3.925,11.606,2.738c3.616-1.047,7.123-2.901,10.291-4.99
		c7.52-4.952,9.409-18.426,3.68-24.342c-7.51-7.75-14.812-15.724-22.631-23.146c-3.146-2.985-5.442-6.351-8.041-9.674
		c-7.635-9.771-16.221-18.813-24.647-27.943c-3.843-4.162-3.884-6.601-0.015-10.522c5.012-5.079,10.021-10.232,14.389-15.854
		c3.826-4.927,6.441-10.782,10.16-15.806c7.119-9.617,15.113-18.615,21.834-28.49c4.412-6.485,8.535-13.52,8.365-22.049
		C287.984,108.704,287.857,105.241,281.604,105.621z"/>
	<path fill="#FFFFFF" d="M281.604,105.621c6.254-0.38,6.381,3.083,6.461,7.077c0.17,8.529-3.953,15.562-8.364,22.049
		c-6.722,9.875-14.716,18.873-21.834,28.49c-3.72,5.023-6.334,10.879-10.16,15.806c-4.366,5.621-9.377,10.774-14.39,15.854
		c-3.868,3.922-3.827,6.36,0.016,10.522c8.43,9.13,17.014,18.173,24.646,27.942c2.6,3.326,4.896,6.688,8.041,9.675
		c7.819,7.424,15.121,15.396,22.631,23.147c5.73,5.916,3.841,19.387-3.68,24.342c-3.168,2.086-6.674,3.941-10.291,4.988
		c-4.102,1.187-8.349,0.569-11.605-2.738c-4.203-4.268-8.357-8.582-12.449-12.952c-5.659-6.046-11.404-12.023-16.816-18.286
		c-7.213-8.348-14.246-16.855-21.143-25.467c-2.822-3.525-5.458-4.057-8.469-0.562c-2.381,2.764-4.304,5.909-6.541,8.801
		c-3.144,4.062-5.97,8.5-9.695,11.957c-4.938,4.58-7.729,10.113-10.414,16.104c-1.994,4.449-5.513,8.255-8.565,12.182
		c-8.766,11.28-17.625,22.487-26.494,33.688c-0.917,1.157-2,2.315-3.257,3.034c-1.357,0.776-3.008,1.039-4.531,1.525
		c-0.377-1.52-0.734-3.044-1.138-4.556c-0.327-1.226-0.395-2.687-1.126-3.604c-3.308-4.162-5.07-8.56-2.491-13.693
		c-10.56-2.887-10.904-4.828-9.021-15.711c1.219-7.039,4.937-11.062,9.996-15.104c2.582-2.062,4.157-5.392,6.157-8.17
		c0.285-0.395,0.345-0.945,0.605-1.363c7.629-12.229,15.044-24.604,23.023-36.604c3.172-4.77,7.312-9.016,11.542-12.924
		c3.652-3.375,3.669-6.53,0.934-10.01c-6.468-8.226-12.704-16.685-19.75-24.395c-9.209-10.076-19.14-19.49-28.68-29.269
		c-1.483-1.52-2.933-3.299-3.716-5.234c-3.458-8.551-6.645-17.211-9.97-25.815c-3.76-9.729,2.516-15.281,11.497-18.404
		c5.443-1.893,11.37-2.249,16.891,1.253c1.816,1.152,4.851,0.41,6.631,1.588c3.799,2.513,7.703,5.251,10.574,8.717
		c10.385,12.531,20.392,25.376,30.471,38.159c2.985,3.786,5.774,7.73,8.589,11.648c4.727,6.578,9.625,6.028,13.829-0.774
		c3.26-5.272,7.618-9.867,11.521-14.738c1.242-1.549,2.691-2.938,3.865-4.534c6.174-8.395,12.278-16.839,18.428-25.252
		c4.398-6.021,10.805-11.454,12.736-18.177c2.348-8.174,8.172-12.051,13.5-16.898c1.81-1.647,5.401-3.411,7.057-2.656
		c2.33,1.062,3.729,4.349,5.306,6.824c0.938,1.473,1.126,3.487,2.213,4.79c5.369,6.436,5.415,7.778-0.178,14.328
		C283.359,102.965,282.859,103.823,281.604,105.621z"/>
</g>
</svg>
